PathFileType	4	(X/Y/Z)	s07c0202.trc
DataRate	CameraRate	NumFrames	NumMarkers	Units	OrigDataRate	OrigDataStartFrame	OrigNumFrames
200	200	6	48	mm	200	500	2000
Frame#	Time	racr			lacr			c7			jug			rlel			rdr			llel			ldr			s2			lic			ric			lasi			rasi			rpsi			lpsi			rgt			lgt			rth1			rth2			rth3			rth4			rlfc			rmfc			rsh1			rsh2			rsh3			rsh4			rlmal			rcal			rtoe			rmt5			lth1			lth2			lth4			lth3			llfc			lmfc			lsh1			lsh2			lsh3			lsh4			llmal			lcal			ltoe			lmt5			SBIKE			LBIKE			RBIKE			
		X1	Y1	Z1	X2	Y2	Z2	X3	Y3	Z3	X4	Y4	Z4	X5	Y5	Z5	X6	Y6	Z6	X7	Y7	Z7	X8	Y8	Z8	X9	Y9	Z9	X10	Y10	Z10	X11	Y11	Z11	X12	Y12	Z12	X13	Y13	Z13	X14	Y14	Z14	X15	Y15	Z15	X16	Y16	Z16	X17	Y17	Z17	X18	Y18	Z18	X19	Y19	Z19	X20	Y20	Z20	X21	Y21	Z21	X22	Y22	Z22	X23	Y23	Z23	X24	Y24	Z24	X25	Y25	Z25	X26	Y26	Z26	X27	Y27	Z27	X28	Y28	Z28	X29	Y29	Z29	X30	Y30	Z30	X31	Y31	Z31	X32	Y32	Z32	X33	Y33	Z33	X34	Y34	Z34	X35	Y35	Z35	X36	Y36	Z36	X37	Y37	Z37	X38	Y38	Z38	X39	Y39	Z39	X40	Y40	Z40	X41	Y41	Z41	X42	Y42	Z42	X43	Y43	Z43	X44	Y44	Z44	X45	Y45	Z45	X46	Y46	Z46	X47	Y47	Z47	X48	Y48	Z48	
500	2.5000	400.018339	1487.788395	-90.899235	412.060506	1476.770226	-380.863552	358.590381	1549.865103	-249.296235	344.339597	1401.550709	-240.312037	476.170412	1152.867775	24.956501	691.934735	953.942197	-63.556154	486.320616	1157.663445	-520.024739	685.661190	937.398518	-451.214634	-140.541546	1189.225921	-271.805312	12.749124	1258.884957	-410.373977	8.499319	1267.036962	-117.245479	54.335143	1187.184134	-384.087303	36.929012	1219.126280	-138.950952	-124.831937	1234.324488	-222.674986	-109.554800	1240.300609	-331.654707	-11.677039	1146.462482	-71.965109	-25.187138	1093.015211	-430.391804	138.068291	1109.171242	-77.489202	224.660126	1100.691568	-90.450426	297.598593	1056.584243	-86.183351	233.534787	1129.970967	-112.056460	412.307641	974.386093	-120.038103	400.508186	955.363309	-226.072073	328.671538	862.713825	-91.007551	287.692794	785.861285	-103.700518	214.893059	737.074406	-95.516488	298.585476	776.481433	-142.959383	119.822686	637.682534	-87.077443	42.350015	643.715650	-117.095368	247.046988	438.041019	-132.930362	170.501667	468.466506	-61.968652	28.198224	984.115857	-441.236613	89.764520	921.299178	-448.656406	121.910235	939.108709	-443.445339	113.010225	835.376963	-442.115231	201.030728	684.496129	-410.969092	194.231129	666.069841	-317.546111	164.632894	541.221578	-430.897362	171.110304	457.956327	-410.545810	133.669314	375.494702	-414.228506	175.422776	461.250620	-368.196439	102.105057	243.366410	-405.213114	33.174193	207.149566	-370.001318	321.799250	179.310598	-362.801940	241.373227	154.490798	-427.794891	-262.698252	968.535154	-239.841457	-83.182261	79.044799	-437.571412	-83.058336	79.599940	-39.867859	
501	2.5050	396.603983	1488.988726	-87.616345	413.596495	1477.658849	-377.220963	358.252403	1550.980626	-246.693458	342.533097	1402.472249	-237.161589	475.017934	1153.274557	23.277457	692.320633	954.553792	-63.730829	488.111735	1159.140373	-519.744293	685.649002	937.364631	-450.319188	-140.322237	1189.327707	-273.368814	14.373562	1258.601964	-413.122152	7.480394	1267.834297	-118.736641	55.120732	1186.854054	-384.965777	36.530758	1220.040191	-140.478769	-124.390421	1234.459379	-225.126611	-109.296334	1240.031341	-333.531373	-11.772545	1148.528367	-72.980992	-24.543046	1092.604263	-431.263798	138.143691	1112.549630	-78.516930	224.791586	1104.790918	-91.720612	298.136337	1061.495253	-87.378842	233.253487	1134.135931	-113.674304	413.763025	979.957039	-121.255623	401.978445	960.718331	-227.306105	331.668999	867.458512	-92.026429	291.457036	790.148557	-104.556438	219.330631	740.508377	-96.070381	302.281712	780.797401	-143.838741	125.228623	639.648984	-87.215811	47.357503	644.261497	-116.905236	255.849396	442.791060	-133.319659	179.430380	471.747136	-62.247081	28.292322	983.678933	-441.721984	89.720203	920.615245	-449.141717	121.819221	938.226458	-444.127234	112.494063	834.624896	-442.992694	200.528597	683.247584	-411.268870	193.588202	664.804273	-317.461201	162.303891	540.420869	-430.859593	167.650829	457.130872	-410.565697	129.040165	375.217298	-414.133817	172.098199	460.352603	-368.230677	95.647822	243.638735	-405.115409	26.061151	208.855353	-369.816156	313.999252	175.103209	-362.615018	233.030289	151.828902	-427.467008	-262.749887	968.546829	-239.888536	-83.182166	79.064613	-437.579761	-83.074631	79.625938	-39.857419	
502	2.5100	393.235976	1489.898930	-84.427657	415.272836	1478.149850	-373.606661	358.044285	1551.755495	-244.159478	342.062896	1403.450982	-235.651614	473.446481	1153.279788	21.201832	692.611452	955.033217	-63.944945	490.225808	1160.830572	-519.889353	685.859465	937.586121	-449.533040	-140.190087	1189.426478	-275.136040	15.386673	1258.016632	-414.269299	6.412257	1268.667701	-120.136439	55.849424	1186.554254	-385.806994	35.924910	1220.971725	-141.831290	-124.738020	1234.904532	-226.984625	-108.962545	1239.966576	-335.868184	-12.222946	1150.487524	-73.988408	-23.981956	1092.090307	-432.121748	137.890252	1115.689034	-79.492880	224.534918	1108.664805	-92.929670	298.281188	1066.095036	-88.520423	232.601744	1137.969158	-114.847886	414.686455	985.112577	-122.241737	403.110596	965.642977	-228.523577	334.333589	871.709391	-92.993719	295.143173	793.818897	-105.210052	223.485058	743.342640	-96.603672	305.797183	784.581566	-144.736810	130.538084	641.211974	-87.362030	52.331065	644.131325	-116.671876	265.181562	447.197577	-133.668082	188.289146	474.616119	-62.552646	28.543024	983.463798	-442.086544	89.843902	920.315769	-449.456490	121.951649	937.875662	-444.581291	112.497194	834.232764	-443.747187	200.784858	682.292145	-411.414772	193.655851	664.149944	-317.330195	160.594511	540.021604	-430.692195	164.644963	456.667297	-410.475560	124.772736	375.416298	-413.997144	169.131079	459.846176	-368.064721	89.236540	244.489942	-405.152467	19.003238	210.914674	-369.610799	306.115268	171.410676	-362.506477	224.634735	149.829341	-427.362136	-262.780181	968.558403	-239.933513	-83.176987	79.064581	-437.595174	-83.116878	79.727735	-39.840857	
503	2.5150	390.049375	1490.240824	-81.587895	416.800224	1478.233030	-369.698059	357.886941	1552.153512	-241.603107	341.510369	1403.997992	-233.771691	472.399876	1153.549837	19.679953	692.841521	955.395717	-64.193724	492.244204	1161.943754	-519.704000	686.371408	937.256612	-448.738112	-140.301519	1189.672703	-276.647794	16.261028	1257.351501	-415.315433	5.290189	1269.387828	-121.560352	56.435329	1186.225653	-386.574317	35.142663	1221.698815	-143.096089	-125.148758	1235.413234	-228.896278	-108.742674	1239.868373	-338.240527	-13.017308	1152.331335	-74.970449	-23.531664	1091.670742	-432.915590	137.350374	1118.631808	-80.356520	224.043506	1112.188972	-94.027931	298.105916	1070.162566	-89.615824	231.757155	1141.381364	-116.277621	415.260057	989.793832	-123.067056	403.657156	970.113395	-229.040040	336.628079	875.452633	-93.870382	298.447759	796.965076	-105.874866	227.424442	745.567731	-97.153319	309.005243	787.782310	-145.578588	135.801310	642.051487	-87.370660	57.262143	643.308884	-116.384451	274.560340	451.166066	-133.938142	197.135306	476.848105	-62.715102	28.974016	983.179277	-442.389023	90.358205	920.248040	-449.521604	122.385144	937.690919	-444.671756	113.065250	834.134539	-444.298046	201.749091	681.718859	-411.425217	194.393734	663.743976	-317.076357	159.437172	540.054331	-430.495878	161.921594	456.594733	-410.307080	120.680490	376.065941	-413.852221	166.509187	459.754476	-367.926967	82.833814	245.814988	-405.152110	11.995216	213.548857	-369.453973	298.187159	168.096723	-362.310118	216.280556	148.294710	-427.174027	-262.820994	968.544623	-239.956503	-83.195367	79.087797	-437.591424	-83.090457	79.680881	-39.862405	
504	2.5200	386.851441	1490.616152	-78.505355	418.559181	1477.879207	-365.873911	357.725967	1552.048892	-239.090710	340.091791	1403.945589	-231.091507	471.343957	1153.898519	18.367380	692.969785	955.661290	-64.503968	494.195353	1162.912054	-519.419663	686.780547	937.068430	-448.001231	-140.556979	1189.855910	-278.186932	17.040934	1256.756146	-416.390747	3.971839	1269.960178	-122.942588	56.847007	1185.915823	-387.185839	34.259814	1222.222937	-144.332976	-125.611966	1235.882514	-230.734160	-108.465097	1239.810677	-339.395162	-14.127340	1154.009201	-75.945344	-23.138545	1091.088407	-433.763306	136.479197	1121.260249	-81.208154	223.218097	1115.362833	-95.146928	297.556833	1073.870014	-90.635469	230.620808	1144.494122	-117.696210	415.457757	993.997652	-123.900349	404.049993	973.990981	-230.007550	338.564776	878.627121	-94.701049	301.438144	799.519850	-106.457902	231.197894	747.268198	-97.486005	311.929531	790.398610	-146.429735	140.962122	642.287512	-87.340050	62.142390	641.777285	-116.035117	283.982327	454.912664	-134.253771	205.980856	478.637747	-62.831060	29.657701	983.000600	-442.586893	91.270827	920.373793	-449.397553	123.187167	937.902826	-444.574845	114.290141	834.273036	-444.638760	203.289395	681.394040	-411.235187	195.816095	663.529869	-316.667227	158.687721	540.340747	-430.223616	159.620113	456.894490	-410.009936	116.918790	377.099426	-413.574015	164.239370	459.930899	-367.664639	76.523606	247.755991	-405.236692	5.070099	216.959475	-369.380443	290.142483	165.210785	-362.171169	207.836860	147.216233	-427.018532	-262.866306	968.544654	-239.983934	-83.191105	79.086189	-437.579761	-83.134187	79.751883	-39.849164	
505	2.5250	383.640034	1490.805058	-75.388409	420.322820	1477.142927	-361.819134	357.661298	1551.475196	-236.525587	338.445724	1403.284981	-228.025939	470.378805	1154.095991	17.119315	693.034704	955.852655	-64.886172	496.070938	1163.615438	-519.137586	686.918457	936.764359	-447.085701	-140.988867	1190.044435	-279.670275	17.733031	1256.076717	-417.206650	2.448239	1270.519367	-124.285931	57.107936	1185.417624	-387.688947	33.201246	1222.918070	-145.619519	-126.051028	1236.288165	-232.709244	-108.265532	1239.642704	-340.944815	-15.526986	1155.521323	-76.893196	-22.923139	1090.393779	-434.573167	135.305084	1123.719291	-82.031931	222.054948	1118.201538	-96.163394	296.683256	1077.128146	-91.420847	229.141923	1147.106425	-118.452694	415.311352	997.766067	-124.658360	404.112463	977.389859	-230.799138	340.085883	881.337485	-95.447561	304.244755	801.529996	-106.871190	234.669513	748.283913	-97.800324	314.666143	792.461412	-147.058287	145.842504	642.070323	-87.287674	66.962494	639.519205	-115.616585	293.401425	458.107392	-134.449324	215.002591	479.878879	-62.933451	30.576078	982.775816	-442.732409	92.634671	920.590142	-449.051905	124.355496	938.229574	-444.126901	116.175415	834.610077	-444.619963	205.398185	681.348025	-411.008918	197.850219	663.538265	-316.188076	158.506384	541.034442	-429.726505	157.716389	457.557451	-409.558892	113.474864	378.617573	-413.227442	162.265259	460.654045	-367.268006	70.459228	250.209259	-405.391577	-1.691868	220.917612	-369.240969	282.029496	162.817557	-362.028666	199.260197	146.648751	-426.874473	-262.908041	968.499439	-240.019306	-83.203933	79.110693	-437.584483	-83.142633	79.719241	-39.860190	
